<!-- Generated by IcoMoon.io -->
<svg version="1.1" xmlns="http://www.w3.org/2000/svg" width="32" height="32" viewBox="0 0 32 32">
<path fill="#ff5900" d="M15.994 0h0.012c8.833 0 15.994 7.161 15.994 15.994v0.012c0 8.833-7.161 15.994-15.994 15.994h-0.012c-8.833 0-15.994-7.161-15.994-15.994v-0.012c0-8.833 7.161-15.994 15.994-15.994z"></path>
<path fill="#ff4100" d="M15.994 0c8.807 0 16.006 7.199 16.006 15.994v0c0 8.807-7.199 16.006-16.006 16.006v-32z"></path>
<path fill="#fff" d="M19.63 20.733c0 1.56 1.884 2.34 2.976 1.236 0.684-0.684 0.684-1.788 0-2.46-1.092-1.104-2.976-0.324-2.976 1.224zM11.759 15.13v-2.4c0-0.264-0.216-0.48-0.48-0.48h-3.312c-0.264 0-0.48 0.216-0.48 0.48v2.4c0 0.264 0.216 0.492 0.48 0.492h3.312c0.264 0 0.48-0.228 0.48-0.492zM16.978 13.642h-3.084c-0.264 0-0.48 0.216-0.48 0.48v6.455h4.044v-6.455c0-0.264-0.216-0.48-0.48-0.48zM16.378 16.438c0-0.204 0.312-0.204 0.312 0v1.344c0 0.204-0.312 0.204-0.312 0v-1.344zM16.87 10.175h-9.131c-1.092 0-1.98 0.888-1.98 1.968v6.467c0 1.080 0.888 1.968 1.98 1.968h0.060c0.132-1.752 2.268-2.544 3.516-1.296 0.336 0.336 0.564 0.792 0.6 1.296h1.188v-6.455c0-0.444 0.36-0.804 0.792-0.804h3.084c0.444 0 0.804 0.36 0.804 0.804v6.455h1.044v-8.615c-0.048-0.468-0.252-0.888-0.576-1.212-0.36-0.348-0.84-0.576-1.38-0.576zM7.967 11.938h3.312c0.444 0 0.792 0.36 0.792 0.792v2.4c0 0.444-0.348 0.804-0.792 0.804h-3.312c-0.444 0-0.804-0.36-0.804-0.804v-2.4c0-0.432 0.36-0.792 0.804-0.792zM8.159 9.851h12.982c-0.072-0.552-0.552-0.984-1.116-0.984h-10.751c-0.576 0-1.044 0.432-1.116 0.984zM19.126 11.831h1.080v-1.656h-2.184c0.588 0.348 1.008 0.96 1.104 1.656zM19.15 15.022h4.595c-0.564-0.84-1.908-2.88-2.052-2.88h-2.544v2.88zM25.149 17.53v1.584h0.816c0.156 0 0.276-0.12 0.276-0.264v-0.768c0-0.3-0.252-0.552-0.552-0.552h-0.54zM19.318 20.577c0.132-1.752 2.268-2.544 3.516-1.296 0.336 0.336 0.564 0.792 0.6 1.296h1.788c0.144 0 0.24-0.132 0.24-0.276v-0.864h-0.468c-0.096 0-0.168-0.072-0.168-0.168v-1.896c0-0.084 0.072-0.156 0.168-0.156h0.468v-1.524l-0.036-0.072-1.392-0.288h-4.883v5.243h0.168zM20.002 16.45c-0.204 0-0.204-0.312 0-0.312h0.972c0.216 0 0.216 0.312 0 0.312h-0.972zM21.813 20.301c-0.396-0.396-1.068-0.12-1.068 0.432 0 0.564 0.672 0.84 1.068 0.444 0.24-0.24 0.24-0.636 0-0.876zM10.295 21.177c0.108-0.132 0.18-0.24 0.18-0.444 0-0.168-0.072-0.324-0.18-0.432-0.396-0.396-1.068-0.12-1.068 0.432 0 0.564 0.672 0.84 1.068 0.444zM6.959 22.485c-0.168 0-0.312 0.144-0.312 0.324 0 0.168 0.144 0.312 0.312 0.312h18.070c0.18 0 0.324-0.144 0.324-0.312 0-0.18-0.144-0.324-0.324-0.324h-18.070zM8.111 20.733c0 1.56 1.884 2.34 2.976 1.236 0.684-0.684 0.684-1.788 0-2.46-1.092-1.104-2.976-0.324-2.976 1.224zM10.523 21.405c-0.6 0.588-1.608 0.168-1.608-0.672 0-0.516 0.42-0.936 0.936-0.936 0.84 0 1.26 1.008 0.672 1.608zM22.041 21.405c-0.6 0.588-1.608 0.168-1.608-0.672 0-0.516 0.42-0.936 0.936-0.936 0.84 0 1.26 1.020 0.672 1.608z"></path>
</svg>
